<svg xmlns="http://www.w3.org/2000/svg" width="14.554" height="14.855" viewBox="0 0 14.554 14.855">
  <path id="Path_23" data-name="Path 23" d="M19.521,42.882A7.465,7.465,0,0,1,31.9,37.3c-.606.667-1.224,1.326-1.883,1.943a5.216,5.216,0,0,0-4.39-.858,4.691,4.691,0,1,0,3.159,8.826A4.1,4.1,0,0,0,31.194,44.4c-1.418-.028-2.837-.011-4.255-.05,0-.844-.007-1.684,0-2.528,2.365,0,4.733-.011,7.1.011a8.392,8.392,0,0,1-1.5,5.939A7.325,7.325,0,0,1,24.528,49.9,7.422,7.422,0,0,1,19.521,42.882Z" transform="translate(-19.517 -35.445)" fill="#fff"/>
</svg>
